<svg xmlns="http://www.w3.org/2000/svg" width="994" height="89" viewBox="0 0 994 89">
  <g id="Group_19855" data-name="Group 19855" transform="translate(-5755 -3854)">
    <g id="Group_19841" data-name="Group 19841" transform="translate(-12 123)">
      <g id="Component_11_52" data-name="Component 11 – 52" transform="translate(5767 3733)">
        <path id="Polygon_8" data-name="Polygon 8" d="M45.665,7.543a5,5,0,0,1,8.67,0l41.36,71.966A5,5,0,0,1,91.36,87H8.64a5,5,0,0,1-4.335-7.491Z" fill="#fff"/>
        <path id="Polygon_2" data-name="Polygon 2" d="M42.522,6.125a4,4,0,0,1,6.956,0l39.128,68.9A4,4,0,0,1,85.128,81H6.872a4,4,0,0,1-3.478-5.975Z" transform="translate(4 4)" fill="#7633c6"/>
        <rect id="Rectangle_108" data-name="Rectangle 108" width="10" height="29" rx="1" transform="translate(45 28)" fill="#fff"/>
        <rect id="Rectangle_109" data-name="Rectangle 109" width="10" height="9" rx="1" transform="translate(45 61)" fill="#fff"/>
      </g>
    </g>
    <g id="Group_19844" data-name="Group 19844" transform="translate(88 123)">
      <g id="Component_11_55" data-name="Component 11 – 55" transform="translate(5767 3733)">
        <path id="Polygon_8-2" data-name="Polygon 8" d="M45.665,7.543a5,5,0,0,1,8.67,0l41.36,71.966A5,5,0,0,1,91.36,87H8.64a5,5,0,0,1-4.335-7.491Z" fill="#fff"/>
        <path id="Polygon_2-2" data-name="Polygon 2" d="M42.522,6.125a4,4,0,0,1,6.956,0l39.128,68.9A4,4,0,0,1,85.128,81H6.872a4,4,0,0,1-3.478-5.975Z" transform="translate(4 4)" fill="#7633c6"/>
      </g>
    </g>
    <g id="Group_19842" data-name="Group 19842" transform="translate(194 121)">
      <g id="Component_11_53" data-name="Component 11 – 53" transform="translate(5761 3733)">
        <path id="Polygon_8-3" data-name="Polygon 8" d="M45.665,7.543a5,5,0,0,1,8.67,0l41.36,71.966A5,5,0,0,1,91.36,87H8.64a5,5,0,0,1-4.335-7.491Z" fill="#fff"/>
        <path id="Polygon_2-3" data-name="Polygon 2" d="M42.522,6.125a4,4,0,0,1,6.956,0l39.128,68.9A4,4,0,0,1,85.128,81H6.872a4,4,0,0,1-3.478-5.975Z" transform="translate(4 4)" fill="#efc347"/>
        <rect id="Rectangle_108-2" data-name="Rectangle 108" width="10" height="29" rx="1" transform="translate(45 28)" fill="#fff"/>
        <rect id="Rectangle_109-2" data-name="Rectangle 109" width="10" height="9" rx="1" transform="translate(45 61)" fill="#fff"/>
      </g>
      <g id="Component_11_56" data-name="Component 11 – 56" transform="translate(5861 3733)">
        <path id="Polygon_8-4" data-name="Polygon 8" d="M45.665,7.543a5,5,0,0,1,8.67,0l41.36,71.966A5,5,0,0,1,91.36,87H8.64a5,5,0,0,1-4.335-7.491Z" fill="#fff"/>
        <path id="Polygon_2-4" data-name="Polygon 2" d="M42.522,6.125a4,4,0,0,1,6.956,0l39.128,68.9A4,4,0,0,1,85.128,81H6.872a4,4,0,0,1-3.478-5.975Z" transform="translate(4 4)" fill="#efc347"/>
      </g>
      <g id="Group_19852" data-name="Group 19852" transform="translate(-215 -248)">
        <line id="Line_116" data-name="Line 116" x2="11" y2="9" transform="translate(5913.5 4039.5)" fill="none" stroke="#fff" stroke-linecap="round" stroke-width="5"/>
        <line id="Line_118" data-name="Line 118" x1="14" y2="22" transform="translate(5924.5 4026.5)" fill="none" stroke="#fff" stroke-linecap="round" stroke-width="5"/>
      </g>
    </g>
    <g id="Group_19843" data-name="Group 19843" transform="translate(388 121)">
      <g id="Component_11_54" data-name="Component 11 – 54" transform="translate(5767 3733)">
        <path id="Polygon_8-5" data-name="Polygon 8" d="M45.665,7.543a5,5,0,0,1,8.67,0l41.36,71.966A5,5,0,0,1,91.36,87H8.64a5,5,0,0,1-4.335-7.491Z" fill="#fff"/>
        <path id="Polygon_2-5" data-name="Polygon 2" d="M42.522,6.125a4,4,0,0,1,6.956,0l39.128,68.9A4,4,0,0,1,85.128,81H6.872a4,4,0,0,1-3.478-5.975Z" transform="translate(4 4)" fill="#cd3529"/>
        <rect id="Rectangle_108-3" data-name="Rectangle 108" width="10" height="29" rx="1" transform="translate(45 28)" fill="#fff"/>
        <rect id="Rectangle_109-3" data-name="Rectangle 109" width="10" height="9" rx="1" transform="translate(45 61)" fill="#fff"/>
      </g>
    </g>
    <g id="Group_19846" data-name="Group 19846" transform="translate(588 123)">
      <g id="Component_11_58" data-name="Component 11 – 58" transform="translate(5767 3733)">
        <path id="Polygon_8-6" data-name="Polygon 8" d="M45.665,7.543a5,5,0,0,1,8.67,0l41.36,71.966A5,5,0,0,1,91.36,87H8.64a5,5,0,0,1-4.335-7.491Z" fill="#fff"/>
        <g id="Polygon_2-6" data-name="Polygon 2" transform="translate(4 4)" fill="none">
          <path d="M41.652,7.656a5,5,0,0,1,8.7,0l37.41,65.875A5,5,0,0,1,83.41,81H8.59a5,5,0,0,1-4.348-7.469Z" stroke="none"/>
          <path d="M 45.99999618530273 14.17509460449219 L 12.02533721923828 74 L 79.97465515136719 74 L 45.99999618530273 14.17509460449219 M 46 5.125045776367188 C 47.69480514526367 5.125045776367188 49.38961029052734 5.968673706054688 50.34780120849609 7.655929565429688 L 87.75827026367188 73.53086853027344 C 89.65119934082031 76.86407470703125 87.24367523193359 81 83.41047668457031 81 L 8.589530944824219 81 C 4.756324768066406 81 2.348785400390625 76.86407470703125 4.241729736328125 73.53086853027344 L 41.65219879150391 7.655929565429688 C 42.61038970947266 5.968673706054688 44.30519485473633 5.125045776367188 46 5.125045776367188 Z" stroke="none" fill="#92c04f"/>
        </g>
      </g>
    </g>
    <g id="Group_19847" data-name="Group 19847" transform="translate(684 123)">
      <g id="Component_11_59" data-name="Component 11 – 59" transform="translate(5767 3733)">
        <path id="Polygon_8-7" data-name="Polygon 8" d="M45.665,7.543a5,5,0,0,1,8.67,0l41.36,71.966A5,5,0,0,1,91.36,87H8.64a5,5,0,0,1-4.335-7.491Z" fill="#fff"/>
        <g id="Polygon_2-7" data-name="Polygon 2" transform="translate(4 4)" fill="none">
          <path d="M41.652,7.656a5,5,0,0,1,8.7,0l37.41,65.875A5,5,0,0,1,83.41,81H8.59a5,5,0,0,1-4.348-7.469Z" stroke="none"/>
          <path d="M 45.99999618530273 14.17509460449219 L 12.02533721923828 74 L 79.97465515136719 74 L 45.99999618530273 14.17509460449219 M 46 5.125045776367188 C 47.69480514526367 5.125045776367188 49.38961029052734 5.968673706054688 50.34780120849609 7.655929565429688 L 87.75827026367188 73.53086853027344 C 89.65119934082031 76.86407470703125 87.24367523193359 81 83.41047668457031 81 L 8.589530944824219 81 C 4.756324768066406 81 2.348785400390625 76.86407470703125 4.241729736328125 73.53086853027344 L 41.65219879150391 7.655929565429688 C 42.61038970947266 5.968673706054688 44.30519485473633 5.125045776367188 46 5.125045776367188 Z" stroke="none" fill="#92c04f"/>
        </g>
      </g>
    </g>
    <g id="Group_19848" data-name="Group 19848" transform="translate(782 123)">
      <g id="Component_11_60" data-name="Component 11 – 60" transform="translate(5767 3733)">
        <path id="Polygon_8-8" data-name="Polygon 8" d="M45.665,7.543a5,5,0,0,1,8.67,0l41.36,71.966A5,5,0,0,1,91.36,87H8.64a5,5,0,0,1-4.335-7.491Z" fill="#fff"/>
        <g id="Polygon_2-8" data-name="Polygon 2" transform="translate(4 4)" fill="none">
          <path d="M41.652,7.656a5,5,0,0,1,8.7,0l37.41,65.875A5,5,0,0,1,83.41,81H8.59a5,5,0,0,1-4.348-7.469Z" stroke="none"/>
          <path d="M 45.99999618530273 14.17509460449219 L 12.02533721923828 74 L 79.97465515136719 74 L 45.99999618530273 14.17509460449219 M 46 5.125045776367188 C 47.69480514526367 5.125045776367188 49.38961029052734 5.968673706054688 50.34780120849609 7.655929565429688 L 87.75827026367188 73.53086853027344 C 89.65119934082031 76.86407470703125 87.24367523193359 81 83.41047668457031 81 L 8.589530944824219 81 C 4.756324768066406 81 2.348785400390625 76.86407470703125 4.241729736328125 73.53086853027344 L 41.65219879150391 7.655929565429688 C 42.61038970947266 5.968673706054688 44.30519485473633 5.125045776367188 46 5.125045776367188 Z" stroke="none" fill="#7633c6"/>
        </g>
      </g>
    </g>
    <g id="Group_19849" data-name="Group 19849" transform="translate(882 123)">
      <g id="Component_11_61" data-name="Component 11 – 61" transform="translate(5767 3733)">
        <path id="Polygon_8-9" data-name="Polygon 8" d="M45.665,7.543a5,5,0,0,1,8.67,0l41.36,71.966A5,5,0,0,1,91.36,87H8.64a5,5,0,0,1-4.335-7.491Z" fill="#fff"/>
        <g id="Polygon_2-9" data-name="Polygon 2" transform="translate(4 4)" fill="none">
          <path d="M41.652,7.656a5,5,0,0,1,8.7,0l37.41,65.875A5,5,0,0,1,83.41,81H8.59a5,5,0,0,1-4.348-7.469Z" stroke="none"/>
          <path d="M 45.99999618530273 14.17509460449219 L 12.02533721923828 74 L 79.97465515136719 74 L 45.99999618530273 14.17509460449219 M 46 5.125045776367188 C 47.69480514526367 5.125045776367188 49.38961029052734 5.968673706054688 50.34780120849609 7.655929565429688 L 87.75827026367188 73.53086853027344 C 89.65119934082031 76.86407470703125 87.24367523193359 81 83.41047668457031 81 L 8.589530944824219 81 C 4.756324768066406 81 2.348785400390625 76.86407470703125 4.241729736328125 73.53086853027344 L 41.65219879150391 7.655929565429688 C 42.61038970947266 5.968673706054688 44.30519485473633 5.125045776367188 46 5.125045776367188 Z" stroke="none" fill="#7633c6"/>
        </g>
      </g>
    </g>
    <g id="Group_19845" data-name="Group 19845" transform="translate(488 121)">
      <g id="Component_11_57" data-name="Component 11 – 57" transform="translate(5767 3733)">
        <path id="Polygon_8-10" data-name="Polygon 8" d="M45.665,7.543a5,5,0,0,1,8.67,0l41.36,71.966A5,5,0,0,1,91.36,87H8.64a5,5,0,0,1-4.335-7.491Z" fill="#fff"/>
        <path id="Polygon_2-10" data-name="Polygon 2" d="M42.522,6.125a4,4,0,0,1,6.956,0l39.128,68.9A4,4,0,0,1,85.128,81H6.872a4,4,0,0,1-3.478-5.975Z" transform="translate(4 4)" fill="#cd3529"/>
      </g>
    </g>
    <rect id="Rectangle_16385" data-name="Rectangle 16385" width="10" height="29" rx="1" transform="translate(6400 3889)" fill="#92c04f"/>
    <rect id="Rectangle_16384" data-name="Rectangle 16384" width="10" height="9" rx="1" transform="translate(6400 3922)" fill="#92c04f"/>
    <rect id="Rectangle_16386" data-name="Rectangle 16386" width="10" height="29" rx="1" transform="translate(6594 3889)" fill="#7633c6"/>
    <rect id="Rectangle_16387" data-name="Rectangle 16387" width="10" height="9" rx="1" transform="translate(6594 3922)" fill="#7633c6"/>
    <g id="Group_19850" data-name="Group 19850" transform="translate(379 -127)">
      <line id="Line_116-2" data-name="Line 116" x2="11" y2="9" transform="translate(5913.5 4039.5)" fill="none" stroke="#fff" stroke-linecap="round" stroke-width="5"/>
      <line id="Line_118-2" data-name="Line 118" x1="14" y2="22" transform="translate(5924.5 4026.5)" fill="none" stroke="#fff" stroke-linecap="round" stroke-width="5"/>
    </g>
    <g id="Group_19853" data-name="Group 19853" transform="translate(572 -123)">
      <line id="Line_116-3" data-name="Line 116" x2="11" y2="9" transform="translate(5913.5 4039.5)" fill="none" stroke="#92c04f" stroke-linecap="round" stroke-width="5"/>
      <line id="Line_118-3" data-name="Line 118" x1="14" y2="22" transform="translate(5924.5 4026.5)" fill="none" stroke="#92c04f" stroke-linecap="round" stroke-width="5"/>
    </g>
    <g id="Group_19854" data-name="Group 19854" transform="translate(770 -125)">
      <line id="Line_116-4" data-name="Line 116" x2="11" y2="9" transform="translate(5913.5 4039.5)" fill="none" stroke="#7633c6" stroke-linecap="round" stroke-width="5"/>
      <line id="Line_118-4" data-name="Line 118" x1="14" y2="22" transform="translate(5924.5 4026.5)" fill="none" stroke="#7633c6" stroke-linecap="round" stroke-width="5"/>
    </g>
    <g id="Group_19851" data-name="Group 19851" transform="translate(175 -127)">
      <line id="Line_116-5" data-name="Line 116" x2="11" y2="9" transform="translate(5913.5 4039.5)" fill="none" stroke="#fff" stroke-linecap="round" stroke-width="5"/>
      <line id="Line_118-5" data-name="Line 118" x1="14" y2="22" transform="translate(5924.5 4026.5)" fill="none" stroke="#fff" stroke-linecap="round" stroke-width="5"/>
    </g>
  </g>
</svg>
